<?xml version="1.0" encoding="UTF-8"?>
<svg id="Layer_2" data-name="Layer 2" xmlns="http://www.w3.org/2000/svg" viewBox="0 0 1617.77 341.5">
  <defs>
    <style>
      .cls-1 {
        fill: #2ab0a1;
      }
    </style>
  </defs>
  <g id="Layer_1-2" data-name="Layer 1-2">
    <g>
      <path class="cls-1" d="M0,261.98l52.13-8.39c1.33,29.16,22.09,45.5,50.8,45.5,23.41,0,41.08-10.16,41.08-26.06-.44-13.69-12.37-21.65-40.2-28.71l-32.25-8.39c-42.85-11.04-61.41-30.48-60.96-64.06,0-42.85,35.34-70.68,85.26-70.68,47.27,0,84.82,25.18,88.35,68.92l-51.69,8.39c-1.33-23.41-16.79-35.78-38.43-35.78-19,0-31.81,10.6-31.81,24.3-.44,12.81,10.6,20.76,36.23,28.27l32.25,8.39c46.39,12.37,67.15,31.81,67.15,64.5,0,44.18-40.64,72.89-96.75,72.89S1.77,313.24,0,261.99h0Z"/>
      <path class="cls-1" d="M208.08,221.33c0-73.33,41.08-120.16,103.37-120.16,50.36,0,87.03,30.92,96.75,80.4l-53.45,12.81c-5.74-29.16-22.53-45.5-42.85-45.5-27.83,0-46.39,27.39-46.39,72.45s21.21,72.45,52.13,72.45c26.51,0,45.94-20.32,50.8-54.34l53.45,9.72c-7.95,56.11-48.59,92.33-104.7,92.33-66.71,0-109.56-46.83-109.12-120.16h.01Z"/>
      <path class="cls-1" d="M427.64,274.79c0-40.2,31.37-68.03,90.12-74.22l35.78-3.98c10.6-.88,18.55-7.95,18.55-20.32,0-19-16.79-30.92-39.32-30.92-27.39,0-45.06,20.76-45.94,44.62l-53.01-12.37c1.77-42.85,41.08-76.43,99.4-76.43s94.98,33.57,94.98,83.94v148.88h-51.25l-6.19-31.37h-.44c-14.14,23.41-38.88,36.67-69.8,36.67-42.85,0-72.89-24.74-72.89-64.5h.01ZM570.78,242.98v-11.49l-39.76,4.42c-31.37,3.53-45.5,16.35-45.5,33.13s15.02,26.51,36.23,26.51c28.27,0,49.04-21.21,49.04-52.57h0Z"/>
      <path class="cls-1" d="M673.28,152.86h-41.08v-44.18h41.08v-37.55c0-43.74,30.04-71.13,77.31-71.13,36.67,0,63.17,18.11,72.45,47.27l-29.16,31.37c-4.42-19-17.67-31.37-34.02-31.37-17.23,0-28.71,13.25-28.71,32.69v28.72h75.54v44.18h-75.54v181.13h-57.43l-.44-181.13Z"/>
      <path class="cls-1" d="M854.4,152.86h-41.08v-44.18h41.08v-37.55c0-43.74,30.04-71.13,77.31-71.13,36.67,0,63.17,18.11,72.45,47.27l-29.16,31.37c-4.42-19-17.67-31.37-34.02-31.37-17.23,0-28.72,13.25-28.72,32.69v28.72h75.54v44.18h-75.54v181.13h-57.43l-.44-181.13h0Z"/>
      <path class="cls-1" d="M1014.76,7.08h57.87v326.91h-57.87V7.08Z"/>
      <path class="cls-1" d="M1097.37,303.95c0-20.32,15.02-34.9,35.78-34.9s36.23,14.58,36.23,34.9-15.02,35.34-36.23,35.34-35.78-14.58-35.78-35.34Z"/>
      <path class="cls-1" d="M1173.35,219.13c0-71.57,41.97-117.95,107.35-117.95s103.38,45.06,103.38,115.74c0,8.39-.44,16.79-1.77,21.21h-151.53c3.09,36.22,26.06,58.75,60.08,58.75,25.18,0,45.06-12.81,53.45-34.9l44.62,17.67c-12.37,38.43-51.25,61.85-98.07,61.85-71.13,0-117.51-48.15-117.51-122.37h0ZM1325.76,200.57c-1.77-34.9-18.11-54.78-45.06-54.78-29.16,0-45.94,20.76-49.92,54.78h94.98Z"/>
      <path class="cls-1" d="M1400.42,221.33c0-73.33,36.23-119.28,91.45-119.28,30.04,0,53.9,14.58,67.59,40.2h.44V7.08h57.87v326.91h-49.48l-6.63-34.9h-.44c-13.25,26.95-38.88,41.53-69.36,41.53-55.22,0-91.45-46.39-91.45-119.28h.01ZM1562.1,221.33c0-41.53-20.32-68.47-52.13-68.47s-52.13,26.95-52.13,68.47,20.76,68.47,52.13,68.47,52.13-26.95,52.13-68.47Z"/>
    </g>
  </g>
</svg>