<svg version="1.2" xmlns="http://www.w3.org/2000/svg" viewBox="0 0 1808 360">
	<title>-e-Folder 4</title>
	<style>
		.s0 { fill: #6c3b9f;stroke: #6c3b9f;stroke-miterlimit:10;stroke-width: 2.7 } 
	</style>
	<g id="-e-Folder 4">
		<path id="scaffl.ed
" class="s0" aria-label="scaffl.ed"  d="m105.6 350.7c51.1 0 88.6-29.8 88.6-71 0-31.1-19.9-49.7-65.6-63.2l-33.4-9.1c-28.5-8.5-41.1-19.4-40.7-35.7 0.5-18.9 17.7-33.9 42.5-33.9 26.7 0 47 16.3 49.3 44.3l33-8.6c-4.6-39.3-37.5-66.4-81.8-66.4-44.3 0-76.4 28-76.4 66.9-0.5 32.1 18.1 50.6 60.1 62.8l33.4 9c32.1 9.1 46.1 20.4 46.1 36.6 0 22.6-23.5 37.1-54.2 37.1-36.1 0-62.8-20.8-64.6-56.5l-33.5 7.7c2.3 48.8 43.9 80 97.2 80zm240.4 0c52.9 0 93.5-35.7 101.7-89.5l-33-7.7c-5.9 40.2-33.5 66.5-68.7 66.5-42.9 0-72.3-35.7-72.3-90.9 0-55.6 26.7-91.3 65.1-91.3 27.5 0 50.6 21.7 58.3 55.6l32.9-8.6c-9.9-47-45.6-77.7-91.2-77.7-59.7 0-99.4 48.4-99.4 122 0 73.2 42 121.6 106.6 121.6zm220.1-0.9c34.3 0 61-15.4 75.9-41.6h0.4l3.6 34.8h30.8v-154.5c0-49.3-34.8-81.4-87.7-81.4-54.2 0-92.6 33.5-95.3 73.7l30.7 13.1c0.9-29.4 26.2-55.6 63.3-55.6 32.5 0 55.5 17.6 55.5 45.2 0 11.7-7.2 18.5-18 19.9l-43.9 5.4c-65.5 8.1-93.1 37.5-93.1 75 0 39.8 32.6 66 77.8 66zm7.2-31.2c-29.4 0-50.6-14-50.6-36.6 0-20.8 17.6-38 63.7-43.8l56-6.8v15.4c0 42.4-29.3 71.8-69.1 71.8zm188 24.4h34.3v-199.7h86.8v-28.5h-86.8v-39.3c0-24.9 13.6-41.1 33.9-41.1 19.9 0 35.3 16.2 38 41.1l29.8-12.7c-3.6-34.8-30.7-58.7-69.1-58.7-41.2 0-67.4 25.7-67.4 65.5v45.2h-45.6v28.5h45.6zm206.1 0h34.3v-199.8h86.8v-28.4h-86.8v-39.3c0-24.9 13.6-41.2 33.9-41.2 19.9 0 35.3 16.3 38 41.2l29.8-12.7c-3.6-34.8-30.7-58.7-69.1-58.7-41.2 0-67.4 25.7-67.4 65.5v45.2h-45.6v28.4h45.6zm181.2 0h34.4v-332.1h-34.4zm122.9 5.4c15 0 25.8-10.4 25.8-25.3 0-14.4-10.8-24.8-25.8-24.8-14.9 0-25.3 10.4-25.3 24.8 0 14.9 10.4 25.3 25.3 25.3zm175.8 2.3c46.1 0 84.1-24.4 96.7-63.3l-29.8-13.5c-9.9 28.4-34.8 45.6-66.9 45.6-43.8 0-74.5-31.2-77.7-79.1h167.2v-13.5c0-72.3-38.4-119.8-99-119.8-62.3 0-103.4 47.5-103.4 119.3 0 75 45.1 124.3 112.9 124.3zm-77.7-140.1c5-43.8 28.9-71.8 68.2-71.8 36.6 0 59.7 26.2 62.8 71.8zm321.3 140.1c34.4 0 61.9-16.7 77.3-45.2h0.4l3.7 37.5h29.8v-332.1h-34.4v140.5h-0.4c-15.8-28-42.5-44.3-76.4-44.3-59.6 0-100.3 48.8-100.3 122 0 72.8 40.7 121.6 100.3 121.6zm5.9-32.5c-42.5 0-71.8-36.2-71.8-89.1 0-52.8 28.9-89.4 71.8-89.4 42.9 0 71.8 36.6 71.8 89.4 0 52.9-28.9 89.1-71.8 89.1z"/>
	</g>
</svg>