<?xml version="1.0" encoding="UTF-8"?>
<svg id="Layer_1" data-name="Layer 1" xmlns="http://www.w3.org/2000/svg" xmlns:xlink="http://www.w3.org/1999/xlink" viewBox="0 0 2189.83 745.57">
  <defs>
    <style>
      .cls-1 {
        fill: url(#radial-gradient);
      }

      .cls-2 {
        fill: url(#radial-gradient-3);
      }

      .cls-3 {
        fill: #2ab0a1;
      }

      .cls-4 {
        fill: url(#radial-gradient-2);
      }

      .cls-5 {
        fill: url(#radial-gradient-4);
      }

      .cls-6 {
        fill: #0c4d4d;
      }
    </style>
    <radialGradient id="radial-gradient" cx="214.97" cy="910.99" fx="214.97" fy="910.99" r="1" gradientTransform="translate(-149994.01 77802.13) rotate(49.43) scale(180.58 -180.58)" gradientUnits="userSpaceOnUse">
      <stop offset="0" stop-color="#0c4d4d"/>
      <stop offset="1" stop-color="#189281"/>
    </radialGradient>
    <radialGradient id="radial-gradient-2" cx="214.1" cy="912.45" fx="214.1" fy="912.45" r="1" gradientTransform="translate(97199.65 250174.49) rotate(-34.42) scale(286.05 -286.05)" gradientUnits="userSpaceOnUse">
      <stop offset="0" stop-color="#189281"/>
      <stop offset=".89" stop-color="#0c4d4d"/>
    </radialGradient>
    <radialGradient id="radial-gradient-3" cx="216.14" cy="910.14" fx="216.14" fy="910.14" r="1" gradientTransform="translate(150404.53 77802.13) rotate(130.57) scale(180.58)" xlink:href="#radial-gradient"/>
    <radialGradient id="radial-gradient-4" cx="213.64" cy="911.66" fx="213.64" fy="911.66" gradientTransform="translate(-96789.13 250174.49) rotate(-145.58) scale(286.05)" xlink:href="#radial-gradient-2"/>
  </defs>
  <g>
    <path id="_Path_" data-name="&amp;lt;Path&amp;gt;" class="cls-6" d="M388.75,0L.45,224v37.5h.5l387.8,224.4v-149.8l-129.5-74.9,129.5-74.7V0Z"/>
    <path id="_Path_-2" data-name="&amp;lt;Path&amp;gt;" class="cls-1" d="M130.15,298.6l259.5,150.1v-149.8l-129.5-74.9"/>
    <path id="_Path_-3" data-name="&amp;lt;Path&amp;gt;" class="cls-4" d="M259.25,224l129.5-74.7V0L.45,224l128.8,74.6"/>
  </g>
  <g>
    <path id="_Path_-4" data-name="&amp;lt;Path&amp;gt;" class="cls-6" d="M.9,259.67l388.3,224v37.5h-.5L.9,745.57v-149.8l129.5-74.9L.9,446.17v-186.5Z"/>
    <path id="_Path_-5" data-name="&amp;lt;Path&amp;gt;" class="cls-2" d="M259.5,558.27L0,708.37v-149.8l129.5-74.9"/>
    <path id="_Path_-6" data-name="&amp;lt;Path&amp;gt;" class="cls-5" d="M130.4,483.67L.9,408.97v-149.3l388.3,224-128.8,74.6"/>
  </g>
  <g>
    <path class="cls-3" d="M546.89,423.1l52.13-8.39c1.33,29.16,22.09,45.5,50.8,45.5,23.41,0,41.08-10.16,41.08-26.06-.44-13.69-12.37-21.65-40.2-28.71l-32.25-8.39c-42.85-11.04-61.41-30.48-60.96-64.06,0-42.85,35.34-70.68,85.26-70.68,47.27,0,84.82,25.18,88.35,68.92l-51.69,8.39c-1.33-23.41-16.79-35.78-38.43-35.78-19,0-31.81,10.6-31.81,24.3-.44,12.81,10.6,20.76,36.23,28.27l32.25,8.39c46.39,12.37,67.15,31.81,67.15,64.5,0,44.18-40.64,72.89-96.75,72.89s-99.4-27.83-101.17-79.08Z"/>
    <path class="cls-3" d="M754.96,382.46c0-73.33,41.08-120.16,103.37-120.16,50.36,0,87.03,30.92,96.75,80.4l-53.45,12.81c-5.74-29.16-22.53-45.5-42.85-45.5-27.83,0-46.39,27.39-46.39,72.45s21.21,72.45,52.13,72.45c26.51,0,45.94-20.32,50.8-54.34l53.45,9.72c-7.95,56.11-48.59,92.33-104.7,92.33-66.71,0-109.56-46.83-109.12-120.16Z"/>
    <path class="cls-3" d="M974.53,435.91c0-40.2,31.37-68.03,90.12-74.22l35.78-3.98c10.6-.88,18.55-7.95,18.55-20.32,0-19-16.79-30.92-39.32-30.92-27.39,0-45.06,20.76-45.94,44.62l-53.01-12.37c1.77-42.85,41.08-76.43,99.4-76.43s94.98,33.57,94.98,83.94v148.88h-51.25l-6.19-31.37h-.44c-14.14,23.41-38.88,36.67-69.8,36.67-42.85,0-72.89-24.74-72.89-64.5ZM1117.66,404.1v-11.49l-39.76,4.42c-31.37,3.53-45.5,16.35-45.5,33.13s15.02,26.51,36.23,26.51c28.27,0,49.04-21.21,49.04-52.57Z"/>
    <path class="cls-3" d="M1220.16,313.98h-41.08v-44.18h41.08v-37.55c0-43.74,30.04-71.13,77.31-71.13,36.67,0,63.17,18.11,72.45,47.27l-29.16,31.37c-4.42-19-17.67-31.37-34.02-31.37-17.23,0-28.71,13.25-28.71,32.69v28.72h75.54v44.18h-75.54v181.13h-57.43l-.44-181.13Z"/>
    <path class="cls-3" d="M1401.28,313.98h-41.08v-44.18h41.08v-37.55c0-43.74,30.04-71.13,77.31-71.13,36.67,0,63.17,18.11,72.45,47.27l-29.16,31.37c-4.42-19-17.67-31.37-34.02-31.37-17.23,0-28.72,13.25-28.72,32.69v28.72h75.54v44.18h-75.54v181.13h-57.43l-.44-181.13Z"/>
    <path class="cls-3" d="M1561.64,168.2h57.87v326.91h-57.87V168.2Z"/>
    <path class="cls-3" d="M1644.25,465.07c0-20.32,15.02-34.9,35.78-34.9s36.23,14.58,36.23,34.9-15.02,35.34-36.23,35.34-35.78-14.58-35.78-35.34Z"/>
    <path class="cls-3" d="M1720.23,380.25c0-71.57,41.97-117.95,107.35-117.95s103.38,45.06,103.38,115.74c0,8.39-.44,16.79-1.77,21.21h-151.53c3.09,36.22,26.06,58.75,60.08,58.75,25.18,0,45.06-12.81,53.45-34.9l44.62,17.67c-12.37,38.43-51.25,61.85-98.07,61.85-71.13,0-117.51-48.15-117.51-122.37ZM1872.64,361.69c-1.77-34.9-18.11-54.78-45.06-54.78-29.16,0-45.94,20.76-49.92,54.78h94.98Z"/>
    <path class="cls-3" d="M1947.3,382.46c0-73.33,36.23-119.28,91.45-119.28,30.04,0,53.9,14.58,67.59,40.2h.44v-135.18h57.87v326.91h-49.48l-6.63-34.9h-.44c-13.25,26.95-38.88,41.53-69.36,41.53-55.22,0-91.45-46.39-91.45-119.28ZM2108.99,382.46c0-41.53-20.32-68.47-52.13-68.47s-52.13,26.95-52.13,68.47,20.76,68.47,52.13,68.47,52.13-26.95,52.13-68.47Z"/>
  </g>
</svg>